<svg xmlns="http://www.w3.org/2000/svg" viewBox="0 0 50 300" width="50" height="300">
  <!-- Main cactus body -->
  <rect x="10" y="0" width="30" height="300" fill="#2D8C4D" rx="5" ry="5" />
  
  <!-- Left branch -->
  <rect x="0" y="100" width="30" height="25" fill="#2D8C4D" rx="5" ry="5" />
  
  <!-- Right branch -->
  <rect x="20" y="170" width="30" height="25" fill="#2D8C4D" rx="5" ry="5" />
  
  <!-- Spines (left side) -->
  <line x1="10" y1="30" x2="0" y2="20" stroke="#004D00" stroke-width="2" />
  <line x1="10" y1="60" x2="0" y2="50" stroke="#004D00" stroke-width="2" />
  <line x1="10" y1="90" x2="0" y2="80" stroke="#004D00" stroke-width="2" />
  <line x1="10" y1="130" x2="0" y2="120" stroke="#004D00" stroke-width="2" />
  <line x1="10" y1="160" x2="0" y2="150" stroke="#004D00" stroke-width="2" />
  <line x1="10" y1="190" x2="0" y2="180" stroke="#004D00" stroke-width="2" />
  <line x1="10" y1="220" x2="0" y2="210" stroke="#004D00" stroke-width="2" />
  <line x1="10" y1="250" x2="0" y2="240" stroke="#004D00" stroke-width="2" />
  <line x1="10" y1="280" x2="0" y2="270" stroke="#004D00" stroke-width="2" />
  
  <!-- Spines (right side) -->
  <line x1="40" y1="30" x2="50" y2="20" stroke="#004D00" stroke-width="2" />
  <line x1="40" y1="60" x2="50" y2="50" stroke="#004D00" stroke-width="2" />
  <line x1="40" y1="90" x2="50" y2="80" stroke="#004D00" stroke-width="2" />
  <line x1="40" y1="130" x2="50" y2="120" stroke="#004D00" stroke-width="2" />
  <line x1="40" y1="160" x2="50" y2="150" stroke="#004D00" stroke-width="2" />
  <line x1="40" y1="190" x2="50" y2="180" stroke="#004D00" stroke-width="2" />
  <line x1="40" y1="220" x2="50" y2="210" stroke="#004D00" stroke-width="2" />
  <line x1="40" y1="250" x2="50" y2="240" stroke="#004D00" stroke-width="2" />
  <line x1="40" y1="280" x2="50" y2="270" stroke="#004D00" stroke-width="2" />
  
  <!-- Branch spines -->
  <line x1="5" y1="100" x2="0" y2="90" stroke="#004D00" stroke-width="2" />
  <line x1="5" y1="125" x2="0" y2="135" stroke="#004D00" stroke-width="2" />
  <line x1="45" y1="170" x2="50" y2="160" stroke="#004D00" stroke-width="2" />
  <line x1="45" y1="195" x2="50" y2="205" stroke="#004D00" stroke-width="2" />
</svg> 